<?xml version="1.0" encoding="us-ascii" standalone="no"?><svg xmlns="http://www.w3.org/2000/svg" xmlns:xlink="http://www.w3.org/1999/xlink" contentStyleType="text/css" height="383px" preserveAspectRatio="none" style="width:3647px;height:383px;background:#FFFFFF;" version="1.1" viewBox="0 0 3647 383" width="3647px" zoomAndPan="magnify"><defs/><g><!--cluster data_preprocessing--><g id="cluster_data_preprocessing"><path d="M8.5,6 L168.5,6 A3.75,3.75 0 0 1 171,8.5 L178,28.2969 L3637.5,28.2969 A2.5,2.5 0 0 1 3640,30.7969 L3640,373.5 A2.5,2.5 0 0 1 3637.5,376 L8.5,376 A2.5,2.5 0 0 1 6,373.5 L6,8.5 A2.5,2.5 0 0 1 8.5,6 " fill="none" style="stroke:#000000;stroke-width:1.5;"/><line style="stroke:#000000;stroke-width:1.5;" x1="6" x2="178" y1="28.2969" y2="28.2969"/><text fill="#000000" font-family="sans-serif" font-size="14" font-weight="bold" lengthAdjust="spacing" textLength="159" x="10" y="20.9951">data_preprocessing</text></g><!--class BaseProcessor--><g id="elem_BaseProcessor"><rect codeLine="2" fill="#F1F1F1" height="145.7813" id="BaseProcessor" rx="2.5" ry="2.5" style="stroke:#181818;stroke-width:0.5;" width="208" x="1341" y="41"/><ellipse cx="1388.75" cy="57" fill="#ADD1B2" rx="11" ry="11" style="stroke:#181818;stroke-width:1.0;"/><path d="M1391.0938,52.6719 C1390.1563,52.2344 1389.5625,52.0938 1388.6875,52.0938 C1386.0625,52.0938 1384.0625,54.1719 1384.0625,56.8906 L1384.0625,58.0156 C1384.0625,60.5938 1386.1719,62.4844 1389.0625,62.4844 C1390.2813,62.4844 1391.4375,62.1875 1392.1875,61.6406 C1392.7656,61.2344 1393.0938,60.7813 1393.0938,60.3906 C1393.0938,59.9375 1392.7031,59.5469 1392.2344,59.5469 C1392.0156,59.5469 1391.8125,59.625 1391.625,59.8125 C1391.1719,60.2969 1391.1719,60.2969 1390.9844,60.3906 C1390.5625,60.6563 1389.875,60.7813 1389.1094,60.7813 C1387.0625,60.7813 1385.7656,59.6875 1385.7656,57.9844 L1385.7656,56.8906 C1385.7656,55.1094 1387.0156,53.7969 1388.75,53.7969 C1389.3281,53.7969 1389.9375,53.9531 1390.4063,54.2031 C1390.8906,54.4844 1391.0625,54.7031 1391.1563,55.1094 C1391.2188,55.5156 1391.25,55.6406 1391.3906,55.7656 C1391.5313,55.9063 1391.7656,56.0156 1391.9844,56.0156 C1392.25,56.0156 1392.5156,55.875 1392.6875,55.6563 C1392.7969,55.5 1392.8281,55.3125 1392.8281,54.8906 L1392.8281,53.4688 C1392.8281,53.0313 1392.8125,52.9063 1392.7188,52.75 C1392.5625,52.4844 1392.2813,52.3438 1391.9844,52.3438 C1391.6875,52.3438 1391.4844,52.4375 1391.2656,52.75 L1391.0938,52.6719 Z " fill="#000000"/><text fill="#000000" font-family="sans-serif" font-size="14" lengthAdjust="spacing" textLength="104" x="1409.25" y="61.8467">BaseProcessor</text><line style="stroke:#181818;stroke-width:0.5;" x1="1342" x2="1548" y1="73" y2="73"/><line style="stroke:#181818;stroke-width:0.5;" x1="1342" x2="1548" y1="81" y2="81"/><ellipse cx="1352" cy="94.6484" fill="#84BE84" rx="3" ry="3" style="stroke:#038048;stroke-width:1.0;"/><text fill="#000000" font-family="sans-serif" font-size="14" lengthAdjust="spacing" textLength="94" x="1361" y="97.9951">__init__(data)</text><ellipse cx="1352" cy="110.9453" fill="#84BE84" rx="3" ry="3" style="stroke:#038048;stroke-width:1.0;"/><text fill="#000000" font-family="sans-serif" font-size="14" lengthAdjust="spacing" textLength="165" x="1361" y="114.292">scaling_robust(column)</text><ellipse cx="1352" cy="127.2422" fill="#84BE84" rx="3" ry="3" style="stroke:#038048;stroke-width:1.0;"/><text fill="#000000" font-family="sans-serif" font-size="14" lengthAdjust="spacing" textLength="182" x="1361" y="130.5889">scaling_min_max(column)</text><ellipse cx="1352" cy="143.5391" fill="#84BE84" rx="3" ry="3" style="stroke:#038048;stroke-width:1.0;"/><text fill="#000000" font-family="sans-serif" font-size="14" lengthAdjust="spacing" textLength="172" x="1361" y="146.8857">scaling_z_score(column)</text><ellipse cx="1352" cy="159.8359" fill="#84BE84" rx="3" ry="3" style="stroke:#038048;stroke-width:1.0;"/><text fill="#000000" font-family="sans-serif" font-size="14" lengthAdjust="spacing" textLength="180" x="1361" y="163.1826">scaling_max_abs(column)</text><ellipse cx="1352" cy="176.1328" fill="#84BE84" rx="3" ry="3" style="stroke:#038048;stroke-width:1.0;"/><text fill="#000000" font-family="sans-serif" font-size="14" lengthAdjust="spacing" textLength="181" x="1361" y="179.4795">one_hot_encode(column)</text></g><!--class PclassProcessor--><g id="elem_PclassProcessor"><rect codeLine="11" fill="#F1F1F1" height="64.2969" id="PclassProcessor" rx="2.5" ry="2.5" style="stroke:#181818;stroke-width:0.5;" width="145" x="22.5" y="271.5"/><ellipse cx="37.5" cy="287.5" fill="#ADD1B2" rx="11" ry="11" style="stroke:#181818;stroke-width:1.0;"/><path d="M39.8438,283.1719 C38.9063,282.7344 38.3125,282.5938 37.4375,282.5938 C34.8125,282.5938 32.8125,284.6719 32.8125,287.3906 L32.8125,288.5156 C32.8125,291.0938 34.9219,292.9844 37.8125,292.9844 C39.0313,292.9844 40.1875,292.6875 40.9375,292.1406 C41.5156,291.7344 41.8438,291.2813 41.8438,290.8906 C41.8438,290.4375 41.4531,290.0469 40.9844,290.0469 C40.7656,290.0469 40.5625,290.125 40.375,290.3125 C39.9219,290.7969 39.9219,290.7969 39.7344,290.8906 C39.3125,291.1563 38.625,291.2813 37.8594,291.2813 C35.8125,291.2813 34.5156,290.1875 34.5156,288.4844 L34.5156,287.3906 C34.5156,285.6094 35.7656,284.2969 37.5,284.2969 C38.0781,284.2969 38.6875,284.4531 39.1563,284.7031 C39.6406,284.9844 39.8125,285.2031 39.9063,285.6094 C39.9688,286.0156 40,286.1406 40.1406,286.2656 C40.2813,286.4063 40.5156,286.5156 40.7344,286.5156 C41,286.5156 41.2656,286.375 41.4375,286.1563 C41.5469,286 41.5781,285.8125 41.5781,285.3906 L41.5781,283.9688 C41.5781,283.5313 41.5625,283.4063 41.4688,283.25 C41.3125,282.9844 41.0313,282.8438 40.7344,282.8438 C40.4375,282.8438 40.2344,282.9375 40.0156,283.25 L39.8438,283.1719 Z " fill="#000000"/><text fill="#000000" font-family="sans-serif" font-size="14" lengthAdjust="spacing" textLength="113" x="51.5" y="292.3467">PclassProcessor</text><line style="stroke:#181818;stroke-width:0.5;" x1="23.5" x2="166.5" y1="303.5" y2="303.5"/><line style="stroke:#181818;stroke-width:0.5;" x1="23.5" x2="166.5" y1="311.5" y2="311.5"/><ellipse cx="33.5" cy="325.1484" fill="#84BE84" rx="3" ry="3" style="stroke:#038048;stroke-width:1.0;"/><text fill="#000000" font-family="sans-serif" font-size="14" lengthAdjust="spacing" textLength="117" x="42.5" y="328.4951">pclass_process()</text></g><!--class SexProcessor--><g id="elem_SexProcessor"><rect codeLine="15" fill="#F1F1F1" height="64.2969" id="SexProcessor" rx="2.5" ry="2.5" style="stroke:#181818;stroke-width:0.5;" width="186" x="203" y="271.5"/><ellipse cx="244.1" cy="287.5" fill="#ADD1B2" rx="11" ry="11" style="stroke:#181818;stroke-width:1.0;"/><path d="M246.4438,283.1719 C245.5063,282.7344 244.9125,282.5938 244.0375,282.5938 C241.4125,282.5938 239.4125,284.6719 239.4125,287.3906 L239.4125,288.5156 C239.4125,291.0938 241.5219,292.9844 244.4125,292.9844 C245.6313,292.9844 246.7875,292.6875 247.5375,292.1406 C248.1156,291.7344 248.4438,291.2813 248.4438,290.8906 C248.4438,290.4375 248.0531,290.0469 247.5844,290.0469 C247.3656,290.0469 247.1625,290.125 246.975,290.3125 C246.5219,290.7969 246.5219,290.7969 246.3344,290.8906 C245.9125,291.1563 245.225,291.2813 244.4594,291.2813 C242.4125,291.2813 241.1156,290.1875 241.1156,288.4844 L241.1156,287.3906 C241.1156,285.6094 242.3656,284.2969 244.1,284.2969 C244.6781,284.2969 245.2875,284.4531 245.7563,284.7031 C246.2406,284.9844 246.4125,285.2031 246.5063,285.6094 C246.5688,286.0156 246.6,286.1406 246.7406,286.2656 C246.8813,286.4063 247.1156,286.5156 247.3344,286.5156 C247.6,286.5156 247.8656,286.375 248.0375,286.1563 C248.1469,286 248.1781,285.8125 248.1781,285.3906 L248.1781,283.9688 C248.1781,283.5313 248.1625,283.4063 248.0688,283.25 C247.9125,282.9844 247.6313,282.8438 247.3344,282.8438 C247.0375,282.8438 246.8344,282.9375 246.6156,283.25 L246.4438,283.1719 Z " fill="#000000"/><text fill="#000000" font-family="sans-serif" font-size="14" lengthAdjust="spacing" textLength="96" x="263.9" y="292.3467">SexProcessor</text><line style="stroke:#181818;stroke-width:0.5;" x1="204" x2="388" y1="303.5" y2="303.5"/><line style="stroke:#181818;stroke-width:0.5;" x1="204" x2="388" y1="311.5" y2="311.5"/><ellipse cx="214" cy="325.1484" fill="#84BE84" rx="3" ry="3" style="stroke:#038048;stroke-width:1.0;"/><text fill="#000000" font-family="sans-serif" font-size="14" lengthAdjust="spacing" textLength="160" x="223" y="328.4951">sex_one_hot_encode()</text></g><!--class TitleProcessor--><g id="elem_TitleProcessor"><rect codeLine="19" fill="#F1F1F1" height="80.5938" id="TitleProcessor" rx="2.5" ry="2.5" style="stroke:#181818;stroke-width:0.5;" width="135" x="424.5" y="263"/><ellipse cx="439.5" cy="279" fill="#ADD1B2" rx="11" ry="11" style="stroke:#181818;stroke-width:1.0;"/><path d="M441.8438,274.6719 C440.9063,274.2344 440.3125,274.0938 439.4375,274.0938 C436.8125,274.0938 434.8125,276.1719 434.8125,278.8906 L434.8125,280.0156 C434.8125,282.5938 436.9219,284.4844 439.8125,284.4844 C441.0313,284.4844 442.1875,284.1875 442.9375,283.6406 C443.5156,283.2344 443.8438,282.7813 443.8438,282.3906 C443.8438,281.9375 443.4531,281.5469 442.9844,281.5469 C442.7656,281.5469 442.5625,281.625 442.375,281.8125 C441.9219,282.2969 441.9219,282.2969 441.7344,282.3906 C441.3125,282.6563 440.625,282.7813 439.8594,282.7813 C437.8125,282.7813 436.5156,281.6875 436.5156,279.9844 L436.5156,278.8906 C436.5156,277.1094 437.7656,275.7969 439.5,275.7969 C440.0781,275.7969 440.6875,275.9531 441.1563,276.2031 C441.6406,276.4844 441.8125,276.7031 441.9063,277.1094 C441.9688,277.5156 442,277.6406 442.1406,277.7656 C442.2813,277.9063 442.5156,278.0156 442.7344,278.0156 C443,278.0156 443.2656,277.875 443.4375,277.6563 C443.5469,277.5 443.5781,277.3125 443.5781,276.8906 L443.5781,275.4688 C443.5781,275.0313 443.5625,274.9063 443.4688,274.75 C443.3125,274.4844 443.0313,274.3438 442.7344,274.3438 C442.4375,274.3438 442.2344,274.4375 442.0156,274.75 L441.8438,274.6719 Z " fill="#000000"/><text fill="#000000" font-family="sans-serif" font-size="14" lengthAdjust="spacing" textLength="103" x="453.5" y="283.8467">TitleProcessor</text><line style="stroke:#181818;stroke-width:0.5;" x1="425.5" x2="558.5" y1="295" y2="295"/><line style="stroke:#181818;stroke-width:0.5;" x1="425.5" x2="558.5" y1="303" y2="303"/><ellipse cx="435.5" cy="316.6484" fill="#84BE84" rx="3" ry="3" style="stroke:#038048;stroke-width:1.0;"/><text fill="#000000" font-family="sans-serif" font-size="14" lengthAdjust="spacing" textLength="101" x="444.5" y="319.9951">extract_title()</text><ellipse cx="435.5" cy="332.9453" fill="#84BE84" rx="3" ry="3" style="stroke:#038048;stroke-width:1.0;"/><text fill="#000000" font-family="sans-serif" font-size="14" lengthAdjust="spacing" textLength="97" x="444.5" y="336.292">group_titles()</text></g><!--class AgeProcessor--><g id="elem_AgeProcessor"><rect codeLine="24" fill="#F1F1F1" height="80.5938" id="AgeProcessor" rx="2.5" ry="2.5" style="stroke:#181818;stroke-width:0.5;" width="356" x="595" y="263"/><ellipse cx="719.75" cy="279" fill="#ADD1B2" rx="11" ry="11" style="stroke:#181818;stroke-width:1.0;"/><path d="M722.0938,274.6719 C721.1563,274.2344 720.5625,274.0938 719.6875,274.0938 C717.0625,274.0938 715.0625,276.1719 715.0625,278.8906 L715.0625,280.0156 C715.0625,282.5938 717.1719,284.4844 720.0625,284.4844 C721.2813,284.4844 722.4375,284.1875 723.1875,283.6406 C723.7656,283.2344 724.0938,282.7813 724.0938,282.3906 C724.0938,281.9375 723.7031,281.5469 723.2344,281.5469 C723.0156,281.5469 722.8125,281.625 722.625,281.8125 C722.1719,282.2969 722.1719,282.2969 721.9844,282.3906 C721.5625,282.6563 720.875,282.7813 720.1094,282.7813 C718.0625,282.7813 716.7656,281.6875 716.7656,279.9844 L716.7656,278.8906 C716.7656,277.1094 718.0156,275.7969 719.75,275.7969 C720.3281,275.7969 720.9375,275.9531 721.4063,276.2031 C721.8906,276.4844 722.0625,276.7031 722.1563,277.1094 C722.2188,277.5156 722.25,277.6406 722.3906,277.7656 C722.5313,277.9063 722.7656,278.0156 722.9844,278.0156 C723.25,278.0156 723.5156,277.875 723.6875,277.6563 C723.7969,277.5 723.8281,277.3125 723.8281,276.8906 L723.8281,275.4688 C723.8281,275.0313 723.8125,274.9063 723.7188,274.75 C723.5625,274.4844 723.2813,274.3438 722.9844,274.3438 C722.6875,274.3438 722.4844,274.4375 722.2656,274.75 L722.0938,274.6719 Z " fill="#000000"/><text fill="#000000" font-family="sans-serif" font-size="14" lengthAdjust="spacing" textLength="98" x="740.25" y="283.8467">AgeProcessor</text><line style="stroke:#181818;stroke-width:0.5;" x1="596" x2="950" y1="295" y2="295"/><line style="stroke:#181818;stroke-width:0.5;" x1="596" x2="950" y1="303" y2="303"/><ellipse cx="606" cy="316.6484" fill="#84BE84" rx="3" ry="3" style="stroke:#038048;stroke-width:1.0;"/><text fill="#000000" font-family="sans-serif" font-size="14" lengthAdjust="spacing" textLength="140" x="615" y="319.9951">fill_missing_values()</text><ellipse cx="606" cy="332.9453" fill="#84BE84" rx="3" ry="3" style="stroke:#038048;stroke-width:1.0;"/><text fill="#000000" font-family="sans-serif" font-size="14" lengthAdjust="spacing" textLength="330" x="615" y="336.292">fill_age_by_title_group(title_grouped_column)</text></g><!--class SibSpProcessor--><g id="elem_SibSpProcessor"><rect codeLine="29" fill="#F1F1F1" height="64.2969" id="SibSpProcessor" rx="2.5" ry="2.5" style="stroke:#181818;stroke-width:0.5;" width="144" x="986" y="271.5"/><ellipse cx="1001" cy="287.5" fill="#ADD1B2" rx="11" ry="11" style="stroke:#181818;stroke-width:1.0;"/><path d="M1003.3438,283.1719 C1002.4063,282.7344 1001.8125,282.5938 1000.9375,282.5938 C998.3125,282.5938 996.3125,284.6719 996.3125,287.3906 L996.3125,288.5156 C996.3125,291.0938 998.4219,292.9844 1001.3125,292.9844 C1002.5313,292.9844 1003.6875,292.6875 1004.4375,292.1406 C1005.0156,291.7344 1005.3438,291.2813 1005.3438,290.8906 C1005.3438,290.4375 1004.9531,290.0469 1004.4844,290.0469 C1004.2656,290.0469 1004.0625,290.125 1003.875,290.3125 C1003.4219,290.7969 1003.4219,290.7969 1003.2344,290.8906 C1002.8125,291.1563 1002.125,291.2813 1001.3594,291.2813 C999.3125,291.2813 998.0156,290.1875 998.0156,288.4844 L998.0156,287.3906 C998.0156,285.6094 999.2656,284.2969 1001,284.2969 C1001.5781,284.2969 1002.1875,284.4531 1002.6563,284.7031 C1003.1406,284.9844 1003.3125,285.2031 1003.4063,285.6094 C1003.4688,286.0156 1003.5,286.1406 1003.6406,286.2656 C1003.7813,286.4063 1004.0156,286.5156 1004.2344,286.5156 C1004.5,286.5156 1004.7656,286.375 1004.9375,286.1563 C1005.0469,286 1005.0781,285.8125 1005.0781,285.3906 L1005.0781,283.9688 C1005.0781,283.5313 1005.0625,283.4063 1004.9688,283.25 C1004.8125,282.9844 1004.5313,282.8438 1004.2344,282.8438 C1003.9375,282.8438 1003.7344,282.9375 1003.5156,283.25 L1003.3438,283.1719 Z " fill="#000000"/><text fill="#000000" font-family="sans-serif" font-size="14" lengthAdjust="spacing" textLength="112" x="1015" y="292.3467">SibSpProcessor</text><line style="stroke:#181818;stroke-width:0.5;" x1="987" x2="1129" y1="303.5" y2="303.5"/><line style="stroke:#181818;stroke-width:0.5;" x1="987" x2="1129" y1="311.5" y2="311.5"/><ellipse cx="997" cy="325.1484" fill="#84BE84" rx="3" ry="3" style="stroke:#038048;stroke-width:1.0;"/><text fill="#000000" font-family="sans-serif" font-size="14" lengthAdjust="spacing" textLength="111" x="1006" y="328.4951">sibsp_process()</text></g><!--class ParchProcessor--><g id="elem_ParchProcessor"><rect codeLine="33" fill="#F1F1F1" height="64.2969" id="ParchProcessor" rx="2.5" ry="2.5" style="stroke:#181818;stroke-width:0.5;" width="142" x="1165" y="271.5"/><ellipse cx="1180" cy="287.5" fill="#ADD1B2" rx="11" ry="11" style="stroke:#181818;stroke-width:1.0;"/><path d="M1182.3438,283.1719 C1181.4063,282.7344 1180.8125,282.5938 1179.9375,282.5938 C1177.3125,282.5938 1175.3125,284.6719 1175.3125,287.3906 L1175.3125,288.5156 C1175.3125,291.0938 1177.4219,292.9844 1180.3125,292.9844 C1181.5313,292.9844 1182.6875,292.6875 1183.4375,292.1406 C1184.0156,291.7344 1184.3438,291.2813 1184.3438,290.8906 C1184.3438,290.4375 1183.9531,290.0469 1183.4844,290.0469 C1183.2656,290.0469 1183.0625,290.125 1182.875,290.3125 C1182.4219,290.7969 1182.4219,290.7969 1182.2344,290.8906 C1181.8125,291.1563 1181.125,291.2813 1180.3594,291.2813 C1178.3125,291.2813 1177.0156,290.1875 1177.0156,288.4844 L1177.0156,287.3906 C1177.0156,285.6094 1178.2656,284.2969 1180,284.2969 C1180.5781,284.2969 1181.1875,284.4531 1181.6563,284.7031 C1182.1406,284.9844 1182.3125,285.2031 1182.4063,285.6094 C1182.4688,286.0156 1182.5,286.1406 1182.6406,286.2656 C1182.7813,286.4063 1183.0156,286.5156 1183.2344,286.5156 C1183.5,286.5156 1183.7656,286.375 1183.9375,286.1563 C1184.0469,286 1184.0781,285.8125 1184.0781,285.3906 L1184.0781,283.9688 C1184.0781,283.5313 1184.0625,283.4063 1183.9688,283.25 C1183.8125,282.9844 1183.5313,282.8438 1183.2344,282.8438 C1182.9375,282.8438 1182.7344,282.9375 1182.5156,283.25 L1182.3438,283.1719 Z " fill="#000000"/><text fill="#000000" font-family="sans-serif" font-size="14" lengthAdjust="spacing" textLength="110" x="1194" y="292.3467">ParchProcessor</text><line style="stroke:#181818;stroke-width:0.5;" x1="1166" x2="1306" y1="303.5" y2="303.5"/><line style="stroke:#181818;stroke-width:0.5;" x1="1166" x2="1306" y1="311.5" y2="311.5"/><ellipse cx="1176" cy="325.1484" fill="#84BE84" rx="3" ry="3" style="stroke:#038048;stroke-width:1.0;"/><text fill="#000000" font-family="sans-serif" font-size="14" lengthAdjust="spacing" textLength="114" x="1185" y="328.4951">parch_process()</text></g><!--class FamilySizeProcessor--><g id="elem_FamilySizeProcessor"><rect codeLine="37" fill="#F1F1F1" height="113.1875" id="FamilySizeProcessor" rx="2.5" ry="2.5" style="stroke:#181818;stroke-width:0.5;" width="206" x="1342" y="247"/><ellipse cx="1369.6" cy="263" fill="#ADD1B2" rx="11" ry="11" style="stroke:#181818;stroke-width:1.0;"/><path d="M1371.9438,258.6719 C1371.0063,258.2344 1370.4125,258.0938 1369.5375,258.0938 C1366.9125,258.0938 1364.9125,260.1719 1364.9125,262.8906 L1364.9125,264.0156 C1364.9125,266.5938 1367.0219,268.4844 1369.9125,268.4844 C1371.1313,268.4844 1372.2875,268.1875 1373.0375,267.6406 C1373.6156,267.2344 1373.9438,266.7813 1373.9438,266.3906 C1373.9438,265.9375 1373.5531,265.5469 1373.0844,265.5469 C1372.8656,265.5469 1372.6625,265.625 1372.475,265.8125 C1372.0219,266.2969 1372.0219,266.2969 1371.8344,266.3906 C1371.4125,266.6563 1370.725,266.7813 1369.9594,266.7813 C1367.9125,266.7813 1366.6156,265.6875 1366.6156,263.9844 L1366.6156,262.8906 C1366.6156,261.1094 1367.8656,259.7969 1369.6,259.7969 C1370.1781,259.7969 1370.7875,259.9531 1371.2563,260.2031 C1371.7406,260.4844 1371.9125,260.7031 1372.0063,261.1094 C1372.0688,261.5156 1372.1,261.6406 1372.2406,261.7656 C1372.3813,261.9063 1372.6156,262.0156 1372.8344,262.0156 C1373.1,262.0156 1373.3656,261.875 1373.5375,261.6563 C1373.6469,261.5 1373.6781,261.3125 1373.6781,260.8906 L1373.6781,259.4688 C1373.6781,259.0313 1373.6625,258.9063 1373.5688,258.75 C1373.4125,258.4844 1373.1313,258.3438 1372.8344,258.3438 C1372.5375,258.3438 1372.3344,258.4375 1372.1156,258.75 L1371.9438,258.6719 Z " fill="#000000"/><text fill="#000000" font-family="sans-serif" font-size="14" lengthAdjust="spacing" textLength="146" x="1386.4" y="267.8467">FamilySizeProcessor</text><line style="stroke:#181818;stroke-width:0.5;" x1="1343" x2="1547" y1="279" y2="279"/><line style="stroke:#181818;stroke-width:0.5;" x1="1343" x2="1547" y1="287" y2="287"/><ellipse cx="1353" cy="300.6484" fill="#84BE84" rx="3" ry="3" style="stroke:#038048;stroke-width:1.0;"/><text fill="#000000" font-family="sans-serif" font-size="14" lengthAdjust="spacing" textLength="152" x="1362" y="303.9951">family_size_process()</text><ellipse cx="1353" cy="316.9453" fill="#84BE84" rx="3" ry="3" style="stroke:#038048;stroke-width:1.0;"/><text fill="#000000" font-family="sans-serif" font-size="14" lengthAdjust="spacing" textLength="118" x="1362" y="320.292">is_alone_family()</text><ellipse cx="1353" cy="333.2422" fill="#84BE84" rx="3" ry="3" style="stroke:#038048;stroke-width:1.0;"/><text fill="#000000" font-family="sans-serif" font-size="14" lengthAdjust="spacing" textLength="173" x="1362" y="336.5889">family_size_categorize()</text><ellipse cx="1353" cy="349.5391" fill="#84BE84" rx="3" ry="3" style="stroke:#038048;stroke-width:1.0;"/><text fill="#000000" font-family="sans-serif" font-size="14" lengthAdjust="spacing" textLength="180" x="1362" y="352.8857">family_one_hot_encode()</text></g><!--class TicketProcessor--><g id="elem_TicketProcessor"><rect codeLine="44" fill="#F1F1F1" height="113.1875" id="TicketProcessor" rx="2.5" ry="2.5" style="stroke:#181818;stroke-width:0.5;" width="296" x="1583" y="247"/><ellipse cx="1668.75" cy="263" fill="#ADD1B2" rx="11" ry="11" style="stroke:#181818;stroke-width:1.0;"/><path d="M1671.0938,258.6719 C1670.1563,258.2344 1669.5625,258.0938 1668.6875,258.0938 C1666.0625,258.0938 1664.0625,260.1719 1664.0625,262.8906 L1664.0625,264.0156 C1664.0625,266.5938 1666.1719,268.4844 1669.0625,268.4844 C1670.2813,268.4844 1671.4375,268.1875 1672.1875,267.6406 C1672.7656,267.2344 1673.0938,266.7813 1673.0938,266.3906 C1673.0938,265.9375 1672.7031,265.5469 1672.2344,265.5469 C1672.0156,265.5469 1671.8125,265.625 1671.625,265.8125 C1671.1719,266.2969 1671.1719,266.2969 1670.9844,266.3906 C1670.5625,266.6563 1669.875,266.7813 1669.1094,266.7813 C1667.0625,266.7813 1665.7656,265.6875 1665.7656,263.9844 L1665.7656,262.8906 C1665.7656,261.1094 1667.0156,259.7969 1668.75,259.7969 C1669.3281,259.7969 1669.9375,259.9531 1670.4063,260.2031 C1670.8906,260.4844 1671.0625,260.7031 1671.1563,261.1094 C1671.2188,261.5156 1671.25,261.6406 1671.3906,261.7656 C1671.5313,261.9063 1671.7656,262.0156 1671.9844,262.0156 C1672.25,262.0156 1672.5156,261.875 1672.6875,261.6563 C1672.7969,261.5 1672.8281,261.3125 1672.8281,260.8906 L1672.8281,259.4688 C1672.8281,259.0313 1672.8125,258.9063 1672.7188,258.75 C1672.5625,258.4844 1672.2813,258.3438 1671.9844,258.3438 C1671.6875,258.3438 1671.4844,258.4375 1671.2656,258.75 L1671.0938,258.6719 Z " fill="#000000"/><text fill="#000000" font-family="sans-serif" font-size="14" lengthAdjust="spacing" textLength="116" x="1689.25" y="267.8467">TicketProcessor</text><line style="stroke:#181818;stroke-width:0.5;" x1="1584" x2="1878" y1="279" y2="279"/><line style="stroke:#181818;stroke-width:0.5;" x1="1584" x2="1878" y1="287" y2="287"/><ellipse cx="1594" cy="300.6484" fill="#84BE84" rx="3" ry="3" style="stroke:#038048;stroke-width:1.0;"/><text fill="#000000" font-family="sans-serif" font-size="14" lengthAdjust="spacing" textLength="117" x="1603" y="303.9951">ticket_process()</text><ellipse cx="1594" cy="316.9453" fill="#84BE84" rx="3" ry="3" style="stroke:#038048;stroke-width:1.0;"/><text fill="#000000" font-family="sans-serif" font-size="14" lengthAdjust="spacing" textLength="232" x="1603" y="320.292">ticket_one_hot_encode(column)</text><ellipse cx="1594" cy="333.2422" fill="#84BE84" rx="3" ry="3" style="stroke:#038048;stroke-width:1.0;"/><text fill="#000000" font-family="sans-serif" font-size="14" lengthAdjust="spacing" textLength="257" x="1603" y="336.5889">categorize_ticket_prefix(threshold)</text><ellipse cx="1594" cy="349.5391" fill="#84BE84" rx="3" ry="3" style="stroke:#038048;stroke-width:1.0;"/><text fill="#000000" font-family="sans-serif" font-size="14" lengthAdjust="spacing" textLength="270" x="1603" y="352.8857">categorize_ticket_prefix_using_title()</text></g><!--class FareProcessor--><g id="elem_FareProcessor"><rect codeLine="51" fill="#F1F1F1" height="64.2969" id="FareProcessor" rx="2.5" ry="2.5" style="stroke:#181818;stroke-width:0.5;" width="133" x="1914.5" y="271.5"/><ellipse cx="1929.5" cy="287.5" fill="#ADD1B2" rx="11" ry="11" style="stroke:#181818;stroke-width:1.0;"/><path d="M1931.8438,283.1719 C1930.9063,282.7344 1930.3125,282.5938 1929.4375,282.5938 C1926.8125,282.5938 1924.8125,284.6719 1924.8125,287.3906 L1924.8125,288.5156 C1924.8125,291.0938 1926.9219,292.9844 1929.8125,292.9844 C1931.0313,292.9844 1932.1875,292.6875 1932.9375,292.1406 C1933.5156,291.7344 1933.8438,291.2813 1933.8438,290.8906 C1933.8438,290.4375 1933.4531,290.0469 1932.9844,290.0469 C1932.7656,290.0469 1932.5625,290.125 1932.375,290.3125 C1931.9219,290.7969 1931.9219,290.7969 1931.7344,290.8906 C1931.3125,291.1563 1930.625,291.2813 1929.8594,291.2813 C1927.8125,291.2813 1926.5156,290.1875 1926.5156,288.4844 L1926.5156,287.3906 C1926.5156,285.6094 1927.7656,284.2969 1929.5,284.2969 C1930.0781,284.2969 1930.6875,284.4531 1931.1563,284.7031 C1931.6406,284.9844 1931.8125,285.2031 1931.9063,285.6094 C1931.9688,286.0156 1932,286.1406 1932.1406,286.2656 C1932.2813,286.4063 1932.5156,286.5156 1932.7344,286.5156 C1933,286.5156 1933.2656,286.375 1933.4375,286.1563 C1933.5469,286 1933.5781,285.8125 1933.5781,285.3906 L1933.5781,283.9688 C1933.5781,283.5313 1933.5625,283.4063 1933.4688,283.25 C1933.3125,282.9844 1933.0313,282.8438 1932.7344,282.8438 C1932.4375,282.8438 1932.2344,282.9375 1932.0156,283.25 L1931.8438,283.1719 Z " fill="#000000"/><text fill="#000000" font-family="sans-serif" font-size="14" lengthAdjust="spacing" textLength="101" x="1943.5" y="292.3467">FareProcessor</text><line style="stroke:#181818;stroke-width:0.5;" x1="1915.5" x2="2046.5" y1="303.5" y2="303.5"/><line style="stroke:#181818;stroke-width:0.5;" x1="1915.5" x2="2046.5" y1="311.5" y2="311.5"/><ellipse cx="1925.5" cy="325.1484" fill="#84BE84" rx="3" ry="3" style="stroke:#038048;stroke-width:1.0;"/><text fill="#000000" font-family="sans-serif" font-size="14" lengthAdjust="spacing" textLength="102" x="1934.5" y="328.4951">fare_process()</text></g><!--class CabinProcessor--><g id="elem_CabinProcessor"><rect codeLine="55" fill="#F1F1F1" height="96.8906" id="CabinProcessor" rx="2.5" ry="2.5" style="stroke:#181818;stroke-width:0.5;" width="194" x="2083" y="255"/><ellipse cx="2120.95" cy="271" fill="#ADD1B2" rx="11" ry="11" style="stroke:#181818;stroke-width:1.0;"/><path d="M2123.2938,266.6719 C2122.3563,266.2344 2121.7625,266.0938 2120.8875,266.0938 C2118.2625,266.0938 2116.2625,268.1719 2116.2625,270.8906 L2116.2625,272.0156 C2116.2625,274.5938 2118.3719,276.4844 2121.2625,276.4844 C2122.4813,276.4844 2123.6375,276.1875 2124.3875,275.6406 C2124.9656,275.2344 2125.2938,274.7813 2125.2938,274.3906 C2125.2938,273.9375 2124.9031,273.5469 2124.4344,273.5469 C2124.2156,273.5469 2124.0125,273.625 2123.825,273.8125 C2123.3719,274.2969 2123.3719,274.2969 2123.1844,274.3906 C2122.7625,274.6563 2122.075,274.7813 2121.3094,274.7813 C2119.2625,274.7813 2117.9656,273.6875 2117.9656,271.9844 L2117.9656,270.8906 C2117.9656,269.1094 2119.2156,267.7969 2120.95,267.7969 C2121.5281,267.7969 2122.1375,267.9531 2122.6063,268.2031 C2123.0906,268.4844 2123.2625,268.7031 2123.3563,269.1094 C2123.4188,269.5156 2123.45,269.6406 2123.5906,269.7656 C2123.7313,269.9063 2123.9656,270.0156 2124.1844,270.0156 C2124.45,270.0156 2124.7156,269.875 2124.8875,269.6563 C2124.9969,269.5 2125.0281,269.3125 2125.0281,268.8906 L2125.0281,267.4688 C2125.0281,267.0313 2125.0125,266.9063 2124.9188,266.75 C2124.7625,266.4844 2124.4813,266.3438 2124.1844,266.3438 C2123.8875,266.3438 2123.6844,266.4375 2123.4656,266.75 L2123.2938,266.6719 Z " fill="#000000"/><text fill="#000000" font-family="sans-serif" font-size="14" lengthAdjust="spacing" textLength="111" x="2140.05" y="275.8467">CabinProcessor</text><line style="stroke:#181818;stroke-width:0.5;" x1="2084" x2="2276" y1="287" y2="287"/><line style="stroke:#181818;stroke-width:0.5;" x1="2084" x2="2276" y1="295" y2="295"/><ellipse cx="2094" cy="308.6484" fill="#84BE84" rx="3" ry="3" style="stroke:#038048;stroke-width:1.0;"/><text fill="#000000" font-family="sans-serif" font-size="14" lengthAdjust="spacing" textLength="168" x="2103" y="311.9951">add_missing_indicator()</text><ellipse cx="2094" cy="324.9453" fill="#84BE84" rx="3" ry="3" style="stroke:#038048;stroke-width:1.0;"/><text fill="#000000" font-family="sans-serif" font-size="14" lengthAdjust="spacing" textLength="151" x="2103" y="328.292">fill_missing(fill_value)</text><ellipse cx="2094" cy="341.2422" fill="#84BE84" rx="3" ry="3" style="stroke:#038048;stroke-width:1.0;"/><text fill="#000000" font-family="sans-serif" font-size="14" lengthAdjust="spacing" textLength="149" x="2103" y="344.5889">extract_first_letter()</text></g><!--class EmbarkedProcessor--><g id="elem_EmbarkedProcessor"><rect codeLine="61" fill="#F1F1F1" height="64.2969" id="EmbarkedProcessor" rx="2.5" ry="2.5" style="stroke:#181818;stroke-width:0.5;" width="267" x="2312.5" y="271.5"/><ellipse cx="2369.75" cy="287.5" fill="#ADD1B2" rx="11" ry="11" style="stroke:#181818;stroke-width:1.0;"/><path d="M2372.0938,283.1719 C2371.1563,282.7344 2370.5625,282.5938 2369.6875,282.5938 C2367.0625,282.5938 2365.0625,284.6719 2365.0625,287.3906 L2365.0625,288.5156 C2365.0625,291.0938 2367.1719,292.9844 2370.0625,292.9844 C2371.2813,292.9844 2372.4375,292.6875 2373.1875,292.1406 C2373.7656,291.7344 2374.0938,291.2813 2374.0938,290.8906 C2374.0938,290.4375 2373.7031,290.0469 2373.2344,290.0469 C2373.0156,290.0469 2372.8125,290.125 2372.625,290.3125 C2372.1719,290.7969 2372.1719,290.7969 2371.9844,290.8906 C2371.5625,291.1563 2370.875,291.2813 2370.1094,291.2813 C2368.0625,291.2813 2366.7656,290.1875 2366.7656,288.4844 L2366.7656,287.3906 C2366.7656,285.6094 2368.0156,284.2969 2369.75,284.2969 C2370.3281,284.2969 2370.9375,284.4531 2371.4063,284.7031 C2371.8906,284.9844 2372.0625,285.2031 2372.1563,285.6094 C2372.2188,286.0156 2372.25,286.1406 2372.3906,286.2656 C2372.5313,286.4063 2372.7656,286.5156 2372.9844,286.5156 C2373.25,286.5156 2373.5156,286.375 2373.6875,286.1563 C2373.7969,286 2373.8281,285.8125 2373.8281,285.3906 L2373.8281,283.9688 C2373.8281,283.5313 2373.8125,283.4063 2373.7188,283.25 C2373.5625,282.9844 2373.2813,282.8438 2372.9844,282.8438 C2372.6875,282.8438 2372.4844,282.9375 2372.2656,283.25 L2372.0938,283.1719 Z " fill="#000000"/><text fill="#000000" font-family="sans-serif" font-size="14" lengthAdjust="spacing" textLength="144" x="2390.25" y="292.3467">EmbarkedProcessor</text><line style="stroke:#181818;stroke-width:0.5;" x1="2313.5" x2="2578.5" y1="303.5" y2="303.5"/><line style="stroke:#181818;stroke-width:0.5;" x1="2313.5" x2="2578.5" y1="311.5" y2="311.5"/><ellipse cx="2323.5" cy="325.1484" fill="#84BE84" rx="3" ry="3" style="stroke:#038048;stroke-width:1.0;"/><text fill="#000000" font-family="sans-serif" font-size="14" lengthAdjust="spacing" textLength="241" x="2332.5" y="328.4951">fill_missing_with_most_common()</text></g><!--class DimensionalityReducer--><g id="elem_DimensionalityReducer"><rect codeLine="65" fill="#F1F1F1" height="80.5938" id="DimensionalityReducer" rx="2.5" ry="2.5" style="stroke:#181818;stroke-width:0.5;" width="519" x="682.5" y="73.5"/><ellipse cx="854.75" cy="89.5" fill="#ADD1B2" rx="11" ry="11" style="stroke:#181818;stroke-width:1.0;"/><path d="M857.0938,85.1719 C856.1563,84.7344 855.5625,84.5938 854.6875,84.5938 C852.0625,84.5938 850.0625,86.6719 850.0625,89.3906 L850.0625,90.5156 C850.0625,93.0938 852.1719,94.9844 855.0625,94.9844 C856.2813,94.9844 857.4375,94.6875 858.1875,94.1406 C858.7656,93.7344 859.0938,93.2813 859.0938,92.8906 C859.0938,92.4375 858.7031,92.0469 858.2344,92.0469 C858.0156,92.0469 857.8125,92.125 857.625,92.3125 C857.1719,92.7969 857.1719,92.7969 856.9844,92.8906 C856.5625,93.1563 855.875,93.2813 855.1094,93.2813 C853.0625,93.2813 851.7656,92.1875 851.7656,90.4844 L851.7656,89.3906 C851.7656,87.6094 853.0156,86.2969 854.75,86.2969 C855.3281,86.2969 855.9375,86.4531 856.4063,86.7031 C856.8906,86.9844 857.0625,87.2031 857.1563,87.6094 C857.2188,88.0156 857.25,88.1406 857.3906,88.2656 C857.5313,88.4063 857.7656,88.5156 857.9844,88.5156 C858.25,88.5156 858.5156,88.375 858.6875,88.1563 C858.7969,88 858.8281,87.8125 858.8281,87.3906 L858.8281,85.9688 C858.8281,85.5313 858.8125,85.4063 858.7188,85.25 C858.5625,84.9844 858.2813,84.8438 857.9844,84.8438 C857.6875,84.8438 857.4844,84.9375 857.2656,85.25 L857.0938,85.1719 Z " fill="#000000"/><text fill="#000000" font-family="sans-serif" font-size="14" lengthAdjust="spacing" textLength="166" x="875.25" y="94.3467">DimensionalityReducer</text><line style="stroke:#181818;stroke-width:0.5;" x1="683.5" x2="1200.5" y1="105.5" y2="105.5"/><line style="stroke:#181818;stroke-width:0.5;" x1="683.5" x2="1200.5" y1="113.5" y2="113.5"/><ellipse cx="693.5" cy="127.1484" fill="#84BE84" rx="3" ry="3" style="stroke:#038048;stroke-width:1.0;"/><text fill="#000000" font-family="sans-serif" font-size="14" lengthAdjust="spacing" textLength="493" x="702.5" y="130.4951">__init__(data, method, n_components, random_state, feature_prefix)</text><ellipse cx="693.5" cy="143.4453" fill="#84BE84" rx="3" ry="3" style="stroke:#038048;stroke-width:1.0;"/><text fill="#000000" font-family="sans-serif" font-size="14" lengthAdjust="spacing" textLength="126" x="702.5" y="146.792">apply_reduction()</text></g><!--class CateInteractionProcessor--><g id="elem_CateInteractionProcessor"><rect codeLine="70" fill="#F1F1F1" height="64.2969" id="CateInteractionProcessor" rx="2.5" ry="2.5" style="stroke:#181818;stroke-width:0.5;" width="418" x="2615" y="271.5"/><ellipse cx="2727.75" cy="287.5" fill="#ADD1B2" rx="11" ry="11" style="stroke:#181818;stroke-width:1.0;"/><path d="M2730.0938,283.1719 C2729.1563,282.7344 2728.5625,282.5938 2727.6875,282.5938 C2725.0625,282.5938 2723.0625,284.6719 2723.0625,287.3906 L2723.0625,288.5156 C2723.0625,291.0938 2725.1719,292.9844 2728.0625,292.9844 C2729.2813,292.9844 2730.4375,292.6875 2731.1875,292.1406 C2731.7656,291.7344 2732.0938,291.2813 2732.0938,290.8906 C2732.0938,290.4375 2731.7031,290.0469 2731.2344,290.0469 C2731.0156,290.0469 2730.8125,290.125 2730.625,290.3125 C2730.1719,290.7969 2730.1719,290.7969 2729.9844,290.8906 C2729.5625,291.1563 2728.875,291.2813 2728.1094,291.2813 C2726.0625,291.2813 2724.7656,290.1875 2724.7656,288.4844 L2724.7656,287.3906 C2724.7656,285.6094 2726.0156,284.2969 2727.75,284.2969 C2728.3281,284.2969 2728.9375,284.4531 2729.4063,284.7031 C2729.8906,284.9844 2730.0625,285.2031 2730.1563,285.6094 C2730.2188,286.0156 2730.25,286.1406 2730.3906,286.2656 C2730.5313,286.4063 2730.7656,286.5156 2730.9844,286.5156 C2731.25,286.5156 2731.5156,286.375 2731.6875,286.1563 C2731.7969,286 2731.8281,285.8125 2731.8281,285.3906 L2731.8281,283.9688 C2731.8281,283.5313 2731.8125,283.4063 2731.7188,283.25 C2731.5625,282.9844 2731.2813,282.8438 2730.9844,282.8438 C2730.6875,282.8438 2730.4844,282.9375 2730.2656,283.25 L2730.0938,283.1719 Z " fill="#000000"/><text fill="#000000" font-family="sans-serif" font-size="14" lengthAdjust="spacing" textLength="184" x="2748.25" y="292.3467">CateInteractionProcessor</text><line style="stroke:#181818;stroke-width:0.5;" x1="2616" x2="3032" y1="303.5" y2="303.5"/><line style="stroke:#181818;stroke-width:0.5;" x1="2616" x2="3032" y1="311.5" y2="311.5"/><ellipse cx="2626" cy="325.1484" fill="#84BE84" rx="3" ry="3" style="stroke:#038048;stroke-width:1.0;"/><text fill="#000000" font-family="sans-serif" font-size="14" lengthAdjust="spacing" textLength="392" x="2635" y="328.4951">add_interaction_feature(feature1, feature2, separator)</text></g><!--class NumerCateInteractionProcessor--><g id="elem_NumerCateInteractionProcessor"><rect codeLine="74" fill="#F1F1F1" height="64.2969" id="NumerCateInteractionProcessor" rx="2.5" ry="2.5" style="stroke:#181818;stroke-width:0.5;" width="556" x="3068" y="271.5"/><ellipse cx="3226.25" cy="287.5" fill="#ADD1B2" rx="11" ry="11" style="stroke:#181818;stroke-width:1.0;"/><path d="M3228.5938,283.1719 C3227.6563,282.7344 3227.0625,282.5938 3226.1875,282.5938 C3223.5625,282.5938 3221.5625,284.6719 3221.5625,287.3906 L3221.5625,288.5156 C3221.5625,291.0938 3223.6719,292.9844 3226.5625,292.9844 C3227.7813,292.9844 3228.9375,292.6875 3229.6875,292.1406 C3230.2656,291.7344 3230.5938,291.2813 3230.5938,290.8906 C3230.5938,290.4375 3230.2031,290.0469 3229.7344,290.0469 C3229.5156,290.0469 3229.3125,290.125 3229.125,290.3125 C3228.6719,290.7969 3228.6719,290.7969 3228.4844,290.8906 C3228.0625,291.1563 3227.375,291.2813 3226.6094,291.2813 C3224.5625,291.2813 3223.2656,290.1875 3223.2656,288.4844 L3223.2656,287.3906 C3223.2656,285.6094 3224.5156,284.2969 3226.25,284.2969 C3226.8281,284.2969 3227.4375,284.4531 3227.9063,284.7031 C3228.3906,284.9844 3228.5625,285.2031 3228.6563,285.6094 C3228.7188,286.0156 3228.75,286.1406 3228.8906,286.2656 C3229.0313,286.4063 3229.2656,286.5156 3229.4844,286.5156 C3229.75,286.5156 3230.0156,286.375 3230.1875,286.1563 C3230.2969,286 3230.3281,285.8125 3230.3281,285.3906 L3230.3281,283.9688 C3230.3281,283.5313 3230.3125,283.4063 3230.2188,283.25 C3230.0625,282.9844 3229.7813,282.8438 3229.4844,282.8438 C3229.1875,282.8438 3228.9844,282.9375 3228.7656,283.25 L3228.5938,283.1719 Z " fill="#000000"/><text fill="#000000" font-family="sans-serif" font-size="14" lengthAdjust="spacing" textLength="231" x="3246.75" y="292.3467">NumerCateInteractionProcessor</text><line style="stroke:#181818;stroke-width:0.5;" x1="3069" x2="3623" y1="303.5" y2="303.5"/><line style="stroke:#181818;stroke-width:0.5;" x1="3069" x2="3623" y1="311.5" y2="311.5"/><ellipse cx="3079" cy="325.1484" fill="#84BE84" rx="3" ry="3" style="stroke:#038048;stroke-width:1.0;"/><text fill="#000000" font-family="sans-serif" font-size="14" lengthAdjust="spacing" textLength="530" x="3088" y="328.4951">create_interaction_features(numerical_feature, categorical_feature_base)</text></g><!--class DataPreprocessor--><g id="elem_DataPreprocessor"><rect codeLine="78" fill="#F1F1F1" height="129.4844" id="DataPreprocessor" rx="2.5" ry="2.5" style="stroke:#181818;stroke-width:0.5;" width="314" x="126" y="49.5"/><ellipse cx="214.25" cy="65.5" fill="#ADD1B2" rx="11" ry="11" style="stroke:#181818;stroke-width:1.0;"/><path d="M216.5938,61.1719 C215.6563,60.7344 215.0625,60.5938 214.1875,60.5938 C211.5625,60.5938 209.5625,62.6719 209.5625,65.3906 L209.5625,66.5156 C209.5625,69.0938 211.6719,70.9844 214.5625,70.9844 C215.7813,70.9844 216.9375,70.6875 217.6875,70.1406 C218.2656,69.7344 218.5938,69.2813 218.5938,68.8906 C218.5938,68.4375 218.2031,68.0469 217.7344,68.0469 C217.5156,68.0469 217.3125,68.125 217.125,68.3125 C216.6719,68.7969 216.6719,68.7969 216.4844,68.8906 C216.0625,69.1563 215.375,69.2813 214.6094,69.2813 C212.5625,69.2813 211.2656,68.1875 211.2656,66.4844 L211.2656,65.3906 C211.2656,63.6094 212.5156,62.2969 214.25,62.2969 C214.8281,62.2969 215.4375,62.4531 215.9063,62.7031 C216.3906,62.9844 216.5625,63.2031 216.6563,63.6094 C216.7188,64.0156 216.75,64.1406 216.8906,64.2656 C217.0313,64.4063 217.2656,64.5156 217.4844,64.5156 C217.75,64.5156 218.0156,64.375 218.1875,64.1563 C218.2969,64 218.3281,63.8125 218.3281,63.3906 L218.3281,61.9688 C218.3281,61.5313 218.3125,61.4063 218.2188,61.25 C218.0625,60.9844 217.7813,60.8438 217.4844,60.8438 C217.1875,60.8438 216.9844,60.9375 216.7656,61.25 L216.5938,61.1719 Z " fill="#000000"/><text fill="#000000" font-family="sans-serif" font-size="14" lengthAdjust="spacing" textLength="129" x="234.75" y="70.3467">DataPreprocessor</text><line style="stroke:#181818;stroke-width:0.5;" x1="127" x2="439" y1="81.5" y2="81.5"/><line style="stroke:#181818;stroke-width:0.5;" x1="127" x2="439" y1="89.5" y2="89.5"/><ellipse cx="137" cy="103.1484" fill="#84BE84" rx="3" ry="3" style="stroke:#038048;stroke-width:1.0;"/><text fill="#000000" font-family="sans-serif" font-size="14" lengthAdjust="spacing" textLength="94" x="146" y="106.4951">__init__(data)</text><ellipse cx="137" cy="119.4453" fill="#84BE84" rx="3" ry="3" style="stroke:#038048;stroke-width:1.0;"/><text fill="#000000" font-family="sans-serif" font-size="14" lengthAdjust="spacing" textLength="261" x="146" y="122.792">add_process_step(step_description)</text><ellipse cx="137" cy="135.7422" fill="#84BE84" rx="3" ry="3" style="stroke:#038048;stroke-width:1.0;"/><text fill="#000000" font-family="sans-serif" font-size="14" lengthAdjust="spacing" textLength="227" x="146" y="139.0889">generate_filename(base_name)</text><ellipse cx="137" cy="152.0391" fill="#84BE84" rx="3" ry="3" style="stroke:#038048;stroke-width:1.0;"/><text fill="#000000" font-family="sans-serif" font-size="14" lengthAdjust="spacing" textLength="288" x="146" y="155.3857">save_processed_data(last_two_columns)</text><ellipse cx="137" cy="168.3359" fill="#84BE84" rx="3" ry="3" style="stroke:#038048;stroke-width:1.0;"/><text fill="#000000" font-family="sans-serif" font-size="14" lengthAdjust="spacing" textLength="91" x="146" y="171.6826">preprocess()</text></g><!--reverse link BaseProcessor to PclassProcessor--><g id="link_BaseProcessor_PclassProcessor"><path codeLine="86" d="M1323.8262,159.8725 C1285.9762,172.5075 1259.59,179.48 1219,187 C766.374,270.857 624.045,108.647 185,247 C167.842,252.407 150.631,261.807 135.923,271.352 " fill="none" id="BaseProcessor-backto-PclassProcessor" style="stroke:#181818;stroke-width:1.0;"/><polygon fill="none" points="1340.9,154.173,1321.9263,154.1813,1325.726,165.5638,1340.9,154.173" style="stroke:#181818;stroke-width:1.0;"/></g><!--reverse link BaseProcessor to SexProcessor--><g id="link_BaseProcessor_SexProcessor"><path codeLine="87" d="M1323.7611,159.5014 C1285.9011,172.1024 1259.53,179.159 1219,187 C863.714,255.729 755.887,150.93 407,247 C386.747,252.577 365.82,261.956 347.67,271.433 " fill="none" id="BaseProcessor-backto-SexProcessor" style="stroke:#181818;stroke-width:1.0;"/><polygon fill="none" points="1340.84,153.817,1321.8663,153.8084,1325.6559,165.1943,1340.84,153.817" style="stroke:#181818;stroke-width:1.0;"/></g><!--reverse link BaseProcessor to TitleProcessor--><g id="link_BaseProcessor_TitleProcessor"><path codeLine="88" d="M1323.6651,159.0464 C1285.7951,171.6064 1259.45,178.766 1219,187 C938.182,244.159 847.569,152.562 577,247 C565.851,250.891 554.716,256.547 544.351,262.778 " fill="none" id="BaseProcessor-backto-TitleProcessor" style="stroke:#181818;stroke-width:1.0;"/><polygon fill="none" points="1340.75,153.38,1321.7764,153.3514,1325.5539,164.7413,1340.75,153.38" style="stroke:#181818;stroke-width:1.0;"/></g><!--reverse link BaseProcessor to AgeProcessor--><g id="link_BaseProcessor_AgeProcessor"><path codeLine="89" d="M1323.7129,155.4913 C1285.5729,167.8223 1259.07,175.845 1219,187 C1108.5,217.763 1078.96,217.961 968,247 C948.931,251.99 928.874,257.453 909.173,262.943 " fill="none" id="BaseProcessor-backto-AgeProcessor" style="stroke:#181818;stroke-width:1.0;"/><polygon fill="none" points="1340.84,149.954,1321.8671,149.7823,1325.5587,161.2004,1340.84,149.954" style="stroke:#181818;stroke-width:1.0;"/></g><!--reverse link BaseProcessor to SibSpProcessor--><g id="link_BaseProcessor_SibSpProcessor"><path codeLine="90" d="M1324.4013,164.1865 C1266.6613,188.6025 1210.63,213.96 1148,247 C1134.04,254.366 1119.3,263.046 1105.88,271.326 " fill="none" id="BaseProcessor-backto-SibSpProcessor" style="stroke:#181818;stroke-width:1.0;"/><polygon fill="none" points="1340.98,157.176,1322.0645,158.6603,1326.7381,169.7127,1340.98,157.176" style="stroke:#181818;stroke-width:1.0;"/></g><!--reverse link BaseProcessor to ParchProcessor--><g id="link_BaseProcessor_ParchProcessor"><path codeLine="91" d="M1351.0921,199.2447 C1318.5521,228.4397 1296.13,248.559 1270.59,271.468 " fill="none" id="BaseProcessor-backto-ParchProcessor" style="stroke:#181818;stroke-width:1.0;"/><polygon fill="none" points="1364.49,187.224,1347.0852,194.7787,1355.099,203.7106,1364.49,187.224" style="stroke:#181818;stroke-width:1.0;"/></g><!--reverse link BaseProcessor to FamilySizeProcessor--><g id="link_BaseProcessor_FamilySizeProcessor"><path codeLine="92" d="M1445,205.224 C1445,225.032 1445,228.194 1445,246.91 " fill="none" id="BaseProcessor-backto-FamilySizeProcessor" style="stroke:#181818;stroke-width:1.0;"/><polygon fill="none" points="1445,187.224,1439,205.224,1451,205.224,1445,187.224" style="stroke:#181818;stroke-width:1.0;"/></g><!--reverse link BaseProcessor to TicketProcessor--><g id="link_BaseProcessor_TicketProcessor"><path codeLine="93" d="M1564.1129,193.0917 C1596.0529,214.0337 1615.75,226.945 1646.24,246.934 " fill="none" id="BaseProcessor-backto-TicketProcessor" style="stroke:#181818;stroke-width:1.0;"/><polygon fill="none" points="1549.06,183.222,1560.823,198.1093,1567.4028,188.0741,1549.06,183.222" style="stroke:#181818;stroke-width:1.0;"/></g><!--reverse link BaseProcessor to FareProcessor--><g id="link_BaseProcessor_FareProcessor"><path codeLine="94" d="M1566.7002,140.0117 C1660.4302,161.1207 1782.96,194.146 1897,247 C1911.43,253.689 1926.22,262.635 1939.28,271.389 " fill="none" id="BaseProcessor-backto-FareProcessor" style="stroke:#181818;stroke-width:1.0;"/><polygon fill="none" points="1549.14,136.057,1565.3819,145.8651,1568.0184,134.1583,1549.14,136.057" style="stroke:#181818;stroke-width:1.0;"/></g><!--reverse link BaseProcessor to CabinProcessor--><g id="link_BaseProcessor_CabinProcessor"><path codeLine="95" d="M1566.8656,132.046 C1691.7256,151.025 1888.51,186.606 2065,247 C2071.92,249.369 2078.97,252.049 2086,254.921 " fill="none" id="BaseProcessor-backto-CabinProcessor" style="stroke:#181818;stroke-width:1.0;"/><polygon fill="none" points="1549.07,129.341,1565.9639,137.9778,1567.7672,126.1141,1549.07,129.341" style="stroke:#181818;stroke-width:1.0;"/></g><!--reverse link BaseProcessor to EmbarkedProcessor--><g id="link_BaseProcessor_EmbarkedProcessor"><path codeLine="96" d="M1566.9606,126.2412 C1728.5406,142.4092 2030.78,178.649 2295,247 C2320.01,253.47 2346.66,262.511 2370.5,271.419 " fill="none" id="BaseProcessor-backto-EmbarkedProcessor" style="stroke:#181818;stroke-width:1.0;"/><polygon fill="none" points="1549.05,124.449,1566.3632,132.2114,1567.5579,120.271,1549.05,124.449" style="stroke:#181818;stroke-width:1.0;"/></g><!--reverse link BaseProcessor to CateInteractionProcessor--><g id="link_BaseProcessor_CateInteractionProcessor"><path codeLine="97" d="M1567.2369,123.9142 C1770.1469,139.5412 2213.8,178.48 2597,247 C2633.74,253.57 2673.39,262.585 2709.12,271.44 " fill="none" id="BaseProcessor-backto-CateInteractionProcessor" style="stroke:#181818;stroke-width:1.0;"/><polygon fill="none" points="1549.29,122.532,1566.7761,129.8965,1567.6976,117.9319,1549.29,122.532" style="stroke:#181818;stroke-width:1.0;"/></g><!--reverse link BaseProcessor to NumerCateInteractionProcessor--><g id="link_BaseProcessor_NumerCateInteractionProcessor"><path codeLine="98" d="M1567.1882,120.6913 C1823.5682,133.3303 2487.14,170.996 3051,247 C3098.9,253.457 3150.82,262.52 3197.55,271.454 " fill="none" id="BaseProcessor-backto-NumerCateInteractionProcessor" style="stroke:#181818;stroke-width:1.0;"/><polygon fill="none" points="1549.21,119.805,1566.8927,126.684,1567.4836,114.6986,1549.21,119.805" style="stroke:#181818;stroke-width:1.0;"/></g><!--SRC=[XLLDRzim3BtdLnWzkPXxsCwxRDq6x384o-u4BJEn44io9BbrklM_ZrASH8xLD8VOviSZzKW_zoZskAFYha6Fq5lghH7adDIxk-BlIdJeNF4L7QsFTcFPMl3l0u3KqWEK8VF-Q7C2Eyu4Q-h1-LAORb3wogUa1eLZtla2JXXBRsJY25YxkTDeWjPu82rCSqbyNKszh-DbqNqVpJ2TjamIDZGkeXsDS5KeoVWZVRVaXqPlKNZmmLjEtUwi6VgZQLRqosu9i9LTnsp5MS0JTaDCkRXuR50VZc0GWSladXfOSB6HzQPV7axMhiyniKOhsYLpmPeB_u5ATeUDVCaS9Rh0iI_9Z2xf0Bl0xJ7cVC8aGw2ddR5yU-MzDHAn9x_emqVpTGkJzOrDYY6N5k2CGLivbhwrv5hJDUy4mX37U5g6X3IReyjIZk57hALUH6FJdDT4waPo2yREDcNobl4XRjBzV4UtqZeF7NbFDYtuNTLezzJStirdwLjGXX64KShe5E6RLAITD9fVON_uJSqWA2yXLQ78jwQf2XrmUXw7zgugBEh6A72UcQsABQ4V8Zk1rUaOsFUy3JQ0Upcl_yXPFpKV2wChIvwy-672BwVhntF5JrNXY7S_a9lW_neKsVUA2CiObAlZIXq0U6RToLGLfnrAZ52p1AUqCc7hirZV5kLmn2cGMQI-37_Ga1DMzg6PapQHvlQuJnukQLHKXg8Gxav2Z4_dlMHz2JLAReSrxjbCQkEcqCkNv3YD-IVayx-7XsjbpeMaMfpppvKt5v4AQxR2J1ApRSvKC1UH4RvyipDDoYFPsnXp1SX5B5xPF4n-ONEnDpTyzVeV]--></g></svg>