<?xml version="1.0" encoding="us-ascii" standalone="no"?><svg xmlns="http://www.w3.org/2000/svg" xmlns:xlink="http://www.w3.org/1999/xlink" contentStyleType="text/css" height="356px" preserveAspectRatio="none" style="width:515px;height:356px;background:#FFFFFF;" version="1.1" viewBox="0 0 515 356" width="515px" zoomAndPan="magnify"><defs/><g><!--cluster titanic--><g id="cluster_titanic"><path d="M8.5,6 L64.5,6 A3.75,3.75 0 0 1 67,8.5 L74,28.2969 L505.5,28.2969 A2.5,2.5 0 0 1 508,30.7969 L508,346.5 A2.5,2.5 0 0 1 505.5,349 L8.5,349 A2.5,2.5 0 0 1 6,346.5 L6,8.5 A2.5,2.5 0 0 1 8.5,6 " fill="none" style="stroke:#000000;stroke-width:1.5;"/><line style="stroke:#000000;stroke-width:1.5;" x1="6" x2="74" y1="28.2969" y2="28.2969"/><text fill="#000000" font-family="sans-serif" font-size="14" font-weight="bold" lengthAdjust="spacing" textLength="55" x="10" y="20.9951">titanic</text></g><!--entity main.py--><g id="elem_main.py"><rect fill="#F1F1F1" height="46.2969" rx="2.5" ry="2.5" style="stroke:#181818;stroke-width:0.5;" width="98" x="219" y="41"/><rect fill="#F1F1F1" height="10" style="stroke:#181818;stroke-width:0.5;" width="15" x="297" y="46"/><rect fill="#F1F1F1" height="2" style="stroke:#181818;stroke-width:0.5;" width="4" x="295" y="48"/><rect fill="#F1F1F1" height="2" style="stroke:#181818;stroke-width:0.5;" width="4" x="295" y="52"/><text fill="#000000" font-family="sans-serif" font-size="14" lengthAdjust="spacing" textLength="58" x="234" y="73.9951">main.py</text></g><!--entity model.py--><g id="elem_model.py"><rect fill="#F1F1F1" height="46.2969" rx="2.5" ry="2.5" style="stroke:#181818;stroke-width:0.5;" width="108" x="22" y="164"/><rect fill="#F1F1F1" height="10" style="stroke:#181818;stroke-width:0.5;" width="15" x="110" y="169"/><rect fill="#F1F1F1" height="2" style="stroke:#181818;stroke-width:0.5;" width="4" x="108" y="171"/><rect fill="#F1F1F1" height="2" style="stroke:#181818;stroke-width:0.5;" width="4" x="108" y="175"/><text fill="#000000" font-family="sans-serif" font-size="14" lengthAdjust="spacing" textLength="68" x="37" y="196.9951">model.py</text></g><!--entity evaluation.py--><g id="elem_evaluation.py"><rect fill="#F1F1F1" height="46.2969" rx="2.5" ry="2.5" style="stroke:#181818;stroke-width:0.5;" width="137" x="22.5" y="287"/><rect fill="#F1F1F1" height="10" style="stroke:#181818;stroke-width:0.5;" width="15" x="139.5" y="292"/><rect fill="#F1F1F1" height="2" style="stroke:#181818;stroke-width:0.5;" width="4" x="137.5" y="294"/><rect fill="#F1F1F1" height="2" style="stroke:#181818;stroke-width:0.5;" width="4" x="137.5" y="298"/><text fill="#000000" font-family="sans-serif" font-size="14" lengthAdjust="spacing" textLength="97" x="37.5" y="319.9951">evaluation.py</text></g><!--entity data_preprocessing.py--><g id="elem_data_preprocessing.py"><rect fill="#F1F1F1" height="46.2969" rx="2.5" ry="2.5" style="stroke:#181818;stroke-width:0.5;" width="205" x="165.5" y="164"/><rect fill="#F1F1F1" height="10" style="stroke:#181818;stroke-width:0.5;" width="15" x="350.5" y="169"/><rect fill="#F1F1F1" height="2" style="stroke:#181818;stroke-width:0.5;" width="4" x="348.5" y="171"/><rect fill="#F1F1F1" height="2" style="stroke:#181818;stroke-width:0.5;" width="4" x="348.5" y="175"/><text fill="#000000" font-family="sans-serif" font-size="14" lengthAdjust="spacing" textLength="165" x="180.5" y="196.9951">data_preprocessing.py</text></g><!--entity tools.py--><g id="elem_tools.py"><rect fill="#F1F1F1" height="46.2969" rx="2.5" ry="2.5" style="stroke:#181818;stroke-width:0.5;" width="99" x="347.5" y="287"/><rect fill="#F1F1F1" height="10" style="stroke:#181818;stroke-width:0.5;" width="15" x="426.5" y="292"/><rect fill="#F1F1F1" height="2" style="stroke:#181818;stroke-width:0.5;" width="4" x="424.5" y="294"/><rect fill="#F1F1F1" height="2" style="stroke:#181818;stroke-width:0.5;" width="4" x="424.5" y="298"/><text fill="#000000" font-family="sans-serif" font-size="14" lengthAdjust="spacing" textLength="59" x="362.5" y="319.9951">tools.py</text></g><!--link model.py to evaluation.py--><g id="link_model.py_evaluation.py"><path d="M78.7512,210.193 C81.4577,232.026 84.8277,259.2095 87.5281,280.993 " fill="none" id="model.py-to-evaluation.py" style="stroke:#181818;stroke-width:1.0;"/><polygon fill="#181818" points="88.2662,286.9474,91.1286,277.5237,87.6511,281.9854,83.1894,278.5079,88.2662,286.9474" style="stroke:#181818;stroke-width:1.0;"/><text fill="#000000" font-family="sans-serif" font-size="13" lengthAdjust="spacing" textLength="49" x="86" y="253.0669">Imports</text></g><!--link main.py to model.py--><g id="link_main.py_model.py"><path d="M232.784,87.193 C198.141,109.026 150.6341,138.965 116.0691,160.748 " fill="none" id="main.py-to-model.py" style="stroke:#181818;stroke-width:1.0;"/><polygon fill="#181818" points="110.993,163.947,120.7398,162.5326,115.2231,161.2812,116.4745,155.7645,110.993,163.947" style="stroke:#181818;stroke-width:1.0;"/><text fill="#000000" font-family="sans-serif" font-size="13" lengthAdjust="spacing" textLength="49" x="185" y="130.0669">Imports</text></g><!--link main.py to data_preprocessing.py--><g id="link_main.py_data_preprocessing.py"><path d="M268,87.193 C268,109.026 268,136.164 268,157.947 " fill="none" id="main.py-to-data_preprocessing.py" style="stroke:#181818;stroke-width:1.0;"/><polygon fill="#181818" points="268,163.947,272,154.947,268,158.947,264,154.947,268,163.947" style="stroke:#181818;stroke-width:1.0;"/><text fill="#000000" font-family="sans-serif" font-size="13" lengthAdjust="spacing" textLength="49" x="269" y="130.0669">Imports</text></g><!--link main.py to tools.py--><g id="link_main.py_tools.py"><path d="M307.879,87.075 C335.068,104.336 369.397,130.926 388,164 C409.824,202.8 406.7412,251.0931 402.1572,281.0288 " fill="none" id="main.py-to-tools.py" style="stroke:#181818;stroke-width:1.0;"/><polygon fill="#181818" points="401.249,286.9597,406.5652,278.6689,402.0058,282.0173,398.6574,277.4579,401.249,286.9597" style="stroke:#181818;stroke-width:1.0;"/><text fill="#000000" font-family="sans-serif" font-size="13" lengthAdjust="spacing" textLength="49" x="403" y="191.5669">Imports</text></g><!--link data_preprocessing.py to tools.py--><g id="link_data_preprocessing.py_tools.py"><path d="M291.661,210.193 C314.936,232.026 345.8899,261.0591 369.1129,282.8426 " fill="none" id="data_preprocessing.py-to-tools.py" style="stroke:#181818;stroke-width:1.0;"/><polygon fill="#181818" points="373.489,286.9474,369.6614,277.8727,369.8422,283.5267,364.1883,283.7075,373.489,286.9474" style="stroke:#181818;stroke-width:1.0;"/><text fill="#000000" font-family="sans-serif" font-size="13" lengthAdjust="spacing" textLength="49" x="341" y="253.0669">Imports</text></g><!--SRC=[AqXCpavCJrLGAiaiISpBJ5PIgEPI08BetCJCFBs2obWeBpybDGV1JIrBp2bDBCdCHrAIabYI65zGb5fGb9-SMboScPUEa2l9pyyf1dDhkRWGXYdewjgX6sQbu9bRa5zKKim5Tm946LmNJXNONO1JETnHI2gm6u5BFG00]--></g></svg>